<svg width="73" height="68" viewBox="0 0 73 68" fill="none" xmlns="http://www.w3.org/2000/svg">
<rect width="73" height="68" rx="29" fill="#FFA700"/>
<path d="M28.1778 48.28C26.3378 48.28 24.6845 47.96 23.2178 47.32C21.7778 46.6533 20.6445 45.7467 19.8178 44.6C18.9911 43.4267 18.5645 42.08 18.5378 40.56H22.4178C22.5511 41.8667 23.0845 42.9733 24.0178 43.88C24.9778 44.76 26.3645 45.2 28.1778 45.2C29.9111 45.2 31.2711 44.7733 32.2578 43.92C33.2711 43.04 33.7778 41.92 33.7778 40.56C33.7778 39.4933 33.4845 38.6267 32.8978 37.96C32.3111 37.2933 31.5778 36.7867 30.6978 36.44C29.8178 36.0933 28.6311 35.72 27.1378 35.32C25.2978 34.84 23.8178 34.36 22.6978 33.88C21.6045 33.4 20.6578 32.6533 19.8578 31.64C19.0845 30.6 18.6978 29.2133 18.6978 27.48C18.6978 25.96 19.0845 24.6133 19.8578 23.44C20.6311 22.2667 21.7111 21.36 23.0978 20.72C24.5111 20.08 26.1245 19.76 27.9378 19.76C30.5511 19.76 32.6845 20.4133 34.3378 21.72C36.0178 23.0267 36.9645 24.76 37.1778 26.92H33.1778C33.0445 25.8533 32.4845 24.92 31.4978 24.12C30.5111 23.2933 29.2045 22.88 27.5778 22.88C26.0578 22.88 24.8178 23.28 23.8578 24.08C22.8978 24.8533 22.4178 25.9467 22.4178 27.36C22.4178 28.3733 22.6978 29.2 23.2578 29.84C23.8445 30.48 24.5511 30.9733 25.3778 31.32C26.2311 31.64 27.4178 32.0133 28.9378 32.44C30.7778 32.9467 32.2578 33.4533 33.3778 33.96C34.4978 34.44 35.4578 35.2 36.2578 36.24C37.0578 37.2533 37.4578 38.64 37.4578 40.4C37.4578 41.76 37.0978 43.04 36.3778 44.24C35.6578 45.44 34.5911 46.4133 33.1778 47.16C31.7645 47.9067 30.0978 48.28 28.1778 48.28ZM46.4544 45.04H56.2144V48H42.8144V20.12H46.4544V45.04Z" fill="#263645"/>
</svg>
